# xmcd
#
# Track frame offsets: 
#        150
#        17249
#        29415
#        49322
#        67452
#        78946
#        97925
#        110835
#        126606
#        137981
#        155194
#        169681
#        186918
#        199645
#        213460
#
# Disc length: 2896 seconds
#
# Revision: 0
# Processed by: cddbd v1.5.2PL0 Copyright (c) Steve Scherf et al.
# Submitted via: ExactAudioCopy v0.99pb3
#
DISCID=ea0b4e0f
DTITLE=Howard Kalish - What The Hey
DYEAR=2003
DGENRE=Country
TTITLE0=Philco Dr
TTITLE1=I will never change so why don't you
TTITLE2=Texas Hambone Blues
TTITLE3=I was sorta wonderin'
TTITLE4=What the hey
TTITLE5=I just want you for a friend
TTITLE6=I can't stand my world without you
TTITLE7=South First Street Rag
TTITLE8=Bonafide Bulldozer Man
TTITLE9=It's dark all over the world
TTITLE10=Cattle Call
TTITLE11=I wanna be a cajun
TTITLE12=Too lonely too long
TTITLE13=If you're cheating on your baby
TTITLE14=The Outro
EXTD=
EXTT0=
EXTT1=
EXTT2=
EXTT3=
EXTT4=
EXTT5=
EXTT6=
EXTT7=
EXTT8=
EXTT9=
EXTT10=
EXTT11=
EXTT12=
EXTT13=
EXTT14=
PLAYORDER=
